<mxfile host="app.diagrams.net" modified="2022-11-16T02:56:36.055Z" agent="5.0 (Windows NT 10.0; Win64; x64) AppleWebKit/537.36 (KHTML, like Gecko) Chrome/107.0.0.0 Safari/537.36" etag="RuhkLx7a_dhGW6IU4jQk" version="20.5.3" type="github">
  <diagram id="sAWx36ydtWWE4M-5tckW" name="PÃ¡gina-1">
    <mxGraphModel dx="1438" dy="539" grid="0" gridSize="10" guides="1" tooltips="1" connect="1" arrows="1" fold="1" page="0" pageScale="1" pageWidth="827" pageHeight="1169" math="0" shadow="0">
      <root>
        <mxCell id="0" />
        <mxCell id="1" parent="0" />
        <mxCell id="gKTv8fwXuYwzSDmj0MgK-1" value="T2" style="ellipse;whiteSpace=wrap;html=1;aspect=fixed;fillColor=#FFF5DB;strokeColor=#d79b00;" vertex="1" parent="1">
          <mxGeometry x="292" y="211" width="80" height="80" as="geometry" />
        </mxCell>
        <mxCell id="gKTv8fwXuYwzSDmj0MgK-2" value="T1" style="ellipse;whiteSpace=wrap;html=1;aspect=fixed;fillColor=#FFD9A8;strokeColor=#d6b656;" vertex="1" parent="1">
          <mxGeometry x="-8" y="211" width="80" height="80" as="geometry" />
        </mxCell>
        <mxCell id="gKTv8fwXuYwzSDmj0MgK-12" value="" style="curved=1;endArrow=classic;html=1;rounded=0;elbow=vertical;exitX=0.5;exitY=1;exitDx=0;exitDy=0;entryX=0.5;entryY=1;entryDx=0;entryDy=0;endFill=1;fillColor=#fff2cc;strokeColor=#141108;" edge="1" parent="1" source="gKTv8fwXuYwzSDmj0MgK-2" target="gKTv8fwXuYwzSDmj0MgK-1">
          <mxGeometry width="50" height="50" relative="1" as="geometry">
            <mxPoint x="50" y="327" as="sourcePoint" />
            <mxPoint x="326" y="327" as="targetPoint" />
            <Array as="points">
              <mxPoint x="76" y="338" />
              <mxPoint x="280" y="367" />
            </Array>
          </mxGeometry>
        </mxCell>
        <mxCell id="gKTv8fwXuYwzSDmj0MgK-14" value="" style="curved=1;endArrow=none;html=1;rounded=0;elbow=vertical;exitX=0.5;exitY=0;exitDx=0;exitDy=0;entryX=0.5;entryY=0;entryDx=0;entryDy=0;endFill=0;startArrow=classic;startFill=1;" edge="1" parent="1" source="gKTv8fwXuYwzSDmj0MgK-2" target="gKTv8fwXuYwzSDmj0MgK-1">
          <mxGeometry width="50" height="50" relative="1" as="geometry">
            <mxPoint x="292" y="344" as="sourcePoint" />
            <mxPoint x="342" y="294" as="targetPoint" />
            <Array as="points">
              <mxPoint x="98" y="171" />
              <mxPoint x="248" y="151" />
            </Array>
          </mxGeometry>
        </mxCell>
        <mxCell id="gKTv8fwXuYwzSDmj0MgK-15" value="&lt;font style=&quot;font-size: 18px;&quot;&gt;X&lt;/font&gt;" style="text;html=1;strokeColor=none;fillColor=none;align=center;verticalAlign=middle;whiteSpace=wrap;rounded=0;" vertex="1" parent="1">
          <mxGeometry x="172" y="351" width="66" height="36" as="geometry" />
        </mxCell>
        <mxCell id="gKTv8fwXuYwzSDmj0MgK-16" value="&lt;font style=&quot;font-size: 18px;&quot;&gt;Y&lt;/font&gt;" style="text;html=1;strokeColor=none;fillColor=none;align=center;verticalAlign=middle;whiteSpace=wrap;rounded=0;rotation=0;" vertex="1" parent="1">
          <mxGeometry x="175" y="132" width="60" height="30" as="geometry" />
        </mxCell>
      </root>
    </mxGraphModel>
  </diagram>
</mxfile>
